<svg t="1748438502584" class="icon" viewBox="0 0 1024 1024" version="1.1" xmlns="http://www.w3.org/2000/svg" p-id="7035"
     width="200" height="200">
    <path d="M512 96c-35.36 0-64 28.64-64 64 0 2.752 0.64 5.376 0.992 8C338.368 196.256 256 296.736 256 416v288c0 18.112-13.888 32-32 32H192v64h230.016A94.4 94.4 0 0 0 416 832c0 52.64 43.36 96 96 96s96-43.36 96-96a94.4 94.4 0 0 0-6.016-32H832v-64h-32c-18.112 0-32-13.888-32-32v-279.008c0-120.256-80.384-227.52-192.992-256.992 0.352-2.624 0.992-5.248 0.992-8 0-35.36-28.64-64-64-64z m-14.016 128c4.64-0.384 9.28 0 14.016 0h6.016C622.496 227.136 704 318.72 704 424.992V704c0 11.264 2.368 21.888 6.016 32H314.016A94.4 94.4 0 0 0 320 704v-288a192.16 192.16 0 0 1 178.016-192zM512 800c18.016 0 32 14.016 32 32 0 18.016-14.016 32-32 32-18.016 0-32-14.016-32-32 0-18.016 14.016-32 32-32z"
          p-id="7036"></path>
</svg>