<svg t="1748428142331" class="icon" viewBox="0 0 1024 1024" version="1.1" xmlns="http://www.w3.org/2000/svg" p-id="7950"
     width="200" height="200">
    <path d="M512.5 512.004m-482 0a482 482 0 1 0 964 0 482 482 0 1 0-964 0Z" fill="#333333" p-id="7951"></path>
    <path d="M783 655a28.008 28.008 0 0 1-19.8-47.8l106.8-106.796V74a28 28 0 1 1 56 0V512a27.992 27.992 0 0 1-8.2 19.8L802.8 646.8a27.932 27.932 0 0 1-19.8 8.2z"
          fill="#999999" p-id="7952"></path>
    <path d="M512 516.496m-194.62 0a194.62 194.62 0 1 0 389.24 0 194.62 194.62 0 1 0-389.24 0Z" fill="#1A1A1A"
          p-id="7953"></path>
    <path d="M512 516.496m-58 0a58 58 0 1 0 116 0 58 58 0 1 0-116 0Z" fill="#FF5C64" p-id="7954"></path>
</svg>