<svg t="1748871260005" class="icon" viewBox="0 0 1024 1024" version="1.1" xmlns="http://www.w3.org/2000/svg" p-id="2722"
     width="200" height="200">
    <path d="M897.682286 306.688l77.568 77.568a36.571429 36.571429 0 1 1-51.712 51.712l-15.542857-15.506286v278.198857l-0.036572 0.987429 0.146286 7.936a182.857143 182.857143 0 1 1-73.216-146.358857V332.946286a36.461714 36.461714 0 0 1 11.081143-26.258286 36.571429 36.571429 0 0 1 51.712 0zM396.105143 785.846857a36.571429 36.571429 0 1 1 0 73.142857h-292.571429a36.571429 36.571429 0 0 1 0-73.142857h292.571429z m329.142857-187.977143a109.714286 109.714286 0 1 0 0 219.428572 109.714286 109.714286 0 0 0 0-219.428572z m-256-143.725714a36.571429 36.571429 0 1 1 0 73.142857h-365.714286a36.571429 36.571429 0 0 1 0-73.142857h365.714286z m369.152-331.702857a36.571429 36.571429 0 1 1 0 73.142857h-731.428571a36.571429 36.571429 0 1 1 0-73.142857h731.428571z"
          fill="#2c2c2c" p-id="2723"></path>
</svg>