<svg t="1748340347521" class="icon" viewBox="0 0 1609 1024" version="1.1" xmlns="http://www.w3.org/2000/svg" p-id="3950"
     width="200" height="200">
    <path d="M1097.128229 987.428571v-950.857142a36.571429 36.571429 0 0 1 36.571428-36.571429 36.571429 36.571429 0 0 1 36.571429 36.571429v950.857142a36.571429 36.571429 0 0 1-36.571429 36.571429 36.571429 36.571429 0 0 1-36.571428-36.571429z m-658.285715 0v-950.857142a36.571429 36.571429 0 0 1 36.571429-36.571429 36.571429 36.571429 0 0 1 36.571428 36.571429v950.857142a36.571429 36.571429 0 0 1-36.571428 36.571429 36.571429 36.571429 0 0 1-36.571429-36.571429z m877.714286-219.428571v-512a36.571429 36.571429 0 0 1 36.571429-36.571429 36.571429 36.571429 0 0 1 36.571428 36.571429v512a36.571429 36.571429 0 0 1-36.571428 36.571429 36.571429 36.571429 0 0 1-36.571429-36.571429z m-438.857143 0v-512a36.571429 36.571429 0 0 1 36.571429-36.571429 36.571429 36.571429 0 0 1 36.571428 36.571429v512a36.571429 36.571429 0 0 1-36.571428 36.571429 36.571429 36.571429 0 0 1-36.571429-36.571429z m-658.285714 0v-512a36.571429 36.571429 0 0 1 36.571428-36.571429 36.571429 36.571429 0 0 1 36.571429 36.571429v512a36.571429 36.571429 0 0 1-36.571429 36.571429 36.571429 36.571429 0 0 1-36.571428-36.571429z m1316.571428-219.428571v-73.142858a36.571429 36.571429 0 0 1 36.571429-36.571428 36.571429 36.571429 0 0 1 36.571429 36.571428v73.142858a36.571429 36.571429 0 0 1-36.571429 36.571428 36.571429 36.571429 0 0 1-36.571429-36.571428z m-877.714285 0v-73.142858a36.571429 36.571429 0 0 1 36.571428-36.571428 36.571429 36.571429 0 0 1 36.571429 36.571428v73.142858a36.571429 36.571429 0 0 1-36.571429 36.571428 36.571429 36.571429 0 0 1-36.571428-36.571428z m-658.285715 0v-73.142858a36.571429 36.571429 0 0 1 36.571429-36.571428 36.571429 36.571429 0 0 1 36.571429 36.571428v73.142858a36.571429 36.571429 0 0 1-36.571429 36.571428 36.571429 36.571429 0 0 1-36.571429-36.571428z"
          fill="#707070" p-id="3951"></path>
</svg>